<svg width="93" height="75" viewBox="0 0 93 75" fill="none" xmlns="http://www.w3.org/2000/svg">
<rect x="18.2452" y="8" width="12.5826" height="12.5826" transform="rotate(47.2872 18.2452 8)" fill="#FB7E14" fill-opacity="0.8"/>
<rect x="31.2452" y="7" width="3.77479" height="12.5826" transform="rotate(47.2872 31.2452 7)" fill="#FB7E14" fill-opacity="0.8"/>
<rect x="24.2452" width="3.77479" height="12.5826" transform="rotate(47.2872 24.2452 0)" fill="#FB7E14" fill-opacity="0.8"/>
<rect x="39" y="56.3091" width="10" height="42" transform="rotate(-68.5772 39 56.3091)" fill="#FB7E14" fill-opacity="0.8"/>
<rect x="6.1311" y="35" width="12.5826" height="6.29132" transform="rotate(77.0419 6.1311 35)" fill="#FB7E14" fill-opacity="0.8"/>
<rect x="44.2014" y="7" width="12.5826" height="6.29132" transform="rotate(1.83501 44.2014 7)" fill="#FB7E14" fill-opacity="0.8"/>
<rect x="36" y="27.6716" width="12.5826" height="6.29132" transform="rotate(-21.7943 36 27.6716)" fill="#FB7E14" fill-opacity="0.8"/>
<rect x="65" y="32.2426" width="12.5826" height="6.29132" transform="rotate(-76.6485 65 32.2426)" fill="#FB7E14" fill-opacity="0.8"/>
<rect x="19.1246" y="61" width="12.5826" height="6.29132" transform="rotate(54.5442 19.1246 61)" fill="#FB7E14" fill-opacity="0.8"/>
<rect x="79" y="45.1344" width="12.5826" height="6.29132" transform="rotate(-46.5483 79 45.1344)" fill="#FB7E14" fill-opacity="0.8"/>
</svg>
