<svg width="60" height="82" viewBox="0 0 60 82" fill="none" xmlns="http://www.w3.org/2000/svg">
<rect x="25.931" y="7.49548" width="12.5826" height="12.5826" transform="rotate(47.2872 25.931 7.49548)" fill="#FB7E14" fill-opacity="0.8"/>
<rect x="39.1953" y="9.80603" width="3.77479" height="12.5826" transform="rotate(47.2872 39.1953 9.80603)" fill="#FB7E14" fill-opacity="0.8"/>
<rect x="30.2335" y="0.0986328" width="3.77479" height="12.5826" transform="rotate(47.2872 30.2335 0.0986328)" fill="#FB7E14" fill-opacity="0.8"/>
<rect x="20" y="31" width="10" height="42" fill="#FB7E14" fill-opacity="0.8"/>
<rect x="4.81946" y="33" width="12.5826" height="6.29132" transform="rotate(50 4.81946 33)" fill="#FB7E14" fill-opacity="0.8"/>
<rect x="39" y="34.5671" width="12.5826" height="6.29132" transform="rotate(-31.461 39 34.5671)" fill="#FB7E14" fill-opacity="0.8"/>
<rect x="1.04419" y="54" width="12.5826" height="6.29132" transform="rotate(9.5532 1.04419 54)" fill="#FB7E14" fill-opacity="0.8"/>
<rect x="43.8364" y="53.2263" width="12.5826" height="6.29132" transform="rotate(-46.3835 43.8364 53.2263)" fill="#FB7E14" fill-opacity="0.8"/>
<rect x="10.0625" y="68" width="12.5826" height="6.29132" transform="rotate(74.4956 10.0625 68)" fill="#FB7E14" fill-opacity="0.8"/>
<rect x="46" y="70.1918" width="12.5826" height="6.29132" transform="rotate(-5.43516 46 70.1918)" fill="#FB7E14" fill-opacity="0.8"/>
</svg>
